<mxfile host="app.diagrams.net" modified="2020-12-03T10:41:42.072Z" agent="5.0 (Windows NT 10.0; Win64; x64) AppleWebKit/537.36 (KHTML, like Gecko) Chrome/86.0.4240.198 Safari/537.36" etag="0k3LGirq-8G7SaaFxSp3" version="13.4.8" type="github">
  <diagram id="w-vKkGoruPvOUjnx7c8Q" name="Page-1">
    <mxGraphModel dx="782" dy="1580" grid="1" gridSize="10" guides="1" tooltips="1" connect="1" arrows="1" fold="1" page="1" pageScale="1" pageWidth="827" pageHeight="1169" math="0" shadow="0">
      <root>
        <mxCell id="0" />
        <mxCell id="1" parent="0" />
        <mxCell id="cUMHBHCWQTj6NiD_pBpI-97" style="edgeStyle=orthogonalEdgeStyle;rounded=0;orthogonalLoop=1;jettySize=auto;html=1;exitX=0.5;exitY=1;exitDx=0;exitDy=0;entryX=0.5;entryY=0;entryDx=0;entryDy=0;" parent="1" source="cUMHBHCWQTj6NiD_pBpI-98" target="cUMHBHCWQTj6NiD_pBpI-108" edge="1">
          <mxGeometry relative="1" as="geometry" />
        </mxCell>
        <mxCell id="cUMHBHCWQTj6NiD_pBpI-98" value="Algemeen klantbeeld Frontend OS" style="shape=module;align=left;spacingLeft=20;align=center;verticalAlign=top;" parent="1" vertex="1">
          <mxGeometry x="655" y="190" width="230" height="60" as="geometry" />
        </mxCell>
        <mxCell id="cUMHBHCWQTj6NiD_pBpI-99" style="edgeStyle=orthogonalEdgeStyle;rounded=0;orthogonalLoop=1;jettySize=auto;html=1;" parent="1" source="cUMHBHCWQTj6NiD_pBpI-119" target="cUMHBHCWQTj6NiD_pBpI-100" edge="1">
          <mxGeometry relative="1" as="geometry" />
        </mxCell>
        <mxCell id="cUMHBHCWQTj6NiD_pBpI-100" value="DB2" style="strokeWidth=2;html=1;shape=mxgraph.flowchart.database;whiteSpace=wrap;" parent="1" vertex="1">
          <mxGeometry x="794" y="870" width="120" height="70" as="geometry" />
        </mxCell>
        <mxCell id="cUMHBHCWQTj6NiD_pBpI-101" value="dw proces" style="shape=module;align=left;spacingLeft=20;align=center;verticalAlign=top;" parent="1" vertex="1">
          <mxGeometry x="1140" y="300" width="180" height="80" as="geometry" />
        </mxCell>
        <mxCell id="cUMHBHCWQTj6NiD_pBpI-102" style="edgeStyle=orthogonalEdgeStyle;rounded=0;orthogonalLoop=1;jettySize=auto;html=1;exitX=0.5;exitY=1;exitDx=0;exitDy=0;" parent="1" source="cUMHBHCWQTj6NiD_pBpI-103" target="cUMHBHCWQTj6NiD_pBpI-114" edge="1">
          <mxGeometry relative="1" as="geometry" />
        </mxCell>
        <mxCell id="cUMHBHCWQTj6NiD_pBpI-103" value="aanmaken notas api" style="shape=module;align=left;spacingLeft=20;align=center;verticalAlign=top;" parent="1" vertex="1">
          <mxGeometry x="400" y="180" width="180" height="80" as="geometry" />
        </mxCell>
        <mxCell id="cUMHBHCWQTj6NiD_pBpI-104" style="edgeStyle=orthogonalEdgeStyle;rounded=0;orthogonalLoop=1;jettySize=auto;html=1;entryX=0;entryY=0.75;entryDx=10;entryDy=0;entryPerimeter=0;" parent="1" source="cUMHBHCWQTj6NiD_pBpI-105" target="cUMHBHCWQTj6NiD_pBpI-119" edge="1">
          <mxGeometry relative="1" as="geometry">
            <mxPoint x="850" y="690" as="targetPoint" />
            <Array as="points">
              <mxPoint x="650" y="723" />
              <mxPoint x="650" y="713" />
            </Array>
          </mxGeometry>
        </mxCell>
        <mxCell id="cUMHBHCWQTj6NiD_pBpI-105" value="vorderen" style="shape=module;align=left;spacingLeft=20;align=center;verticalAlign=top;" parent="1" vertex="1">
          <mxGeometry x="360" y="710" width="190" height="70" as="geometry" />
        </mxCell>
        <mxCell id="cUMHBHCWQTj6NiD_pBpI-106" style="edgeStyle=orthogonalEdgeStyle;rounded=0;orthogonalLoop=1;jettySize=auto;html=1;exitX=0.5;exitY=1;exitDx=0;exitDy=0;" parent="1" source="cUMHBHCWQTj6NiD_pBpI-108" target="cUMHBHCWQTj6NiD_pBpI-119" edge="1">
          <mxGeometry relative="1" as="geometry" />
        </mxCell>
        <mxCell id="cUMHBHCWQTj6NiD_pBpI-107" style="edgeStyle=orthogonalEdgeStyle;rounded=0;orthogonalLoop=1;jettySize=auto;html=1;entryX=0;entryY=0;entryDx=0;entryDy=35;entryPerimeter=0;" parent="1" source="cUMHBHCWQTj6NiD_pBpI-108" target="cUMHBHCWQTj6NiD_pBpI-110" edge="1">
          <mxGeometry relative="1" as="geometry">
            <Array as="points">
              <mxPoint x="1020" y="340" />
              <mxPoint x="1020" y="525" />
              <mxPoint x="1060" y="525" />
            </Array>
          </mxGeometry>
        </mxCell>
        <mxCell id="cUMHBHCWQTj6NiD_pBpI-108" value="Algemeen klantbeeld API" style="shape=module;align=left;spacingLeft=20;align=center;verticalAlign=top;" parent="1" vertex="1">
          <mxGeometry x="690" y="300" width="160" height="80" as="geometry" />
        </mxCell>
        <mxCell id="cUMHBHCWQTj6NiD_pBpI-109" style="edgeStyle=orthogonalEdgeStyle;rounded=0;orthogonalLoop=1;jettySize=auto;html=1;entryX=1;entryY=0.75;entryDx=0;entryDy=0;" parent="1" source="cUMHBHCWQTj6NiD_pBpI-110" target="cUMHBHCWQTj6NiD_pBpI-119" edge="1">
          <mxGeometry relative="1" as="geometry">
            <Array as="points">
              <mxPoint x="1110" y="630" />
              <mxPoint x="967" y="630" />
              <mxPoint x="967" y="660" />
            </Array>
          </mxGeometry>
        </mxCell>
        <mxCell id="cUMHBHCWQTj6NiD_pBpI-110" value="betalingsregeling proces" style="shape=module;align=left;spacingLeft=20;align=center;verticalAlign=top;" parent="1" vertex="1">
          <mxGeometry x="1060" y="480" width="180" height="80" as="geometry" />
        </mxCell>
        <mxCell id="cUMHBHCWQTj6NiD_pBpI-111" style="edgeStyle=orthogonalEdgeStyle;rounded=0;orthogonalLoop=1;jettySize=auto;html=1;entryX=0.159;entryY=-0.029;entryDx=0;entryDy=0;entryPerimeter=0;" parent="1" source="cUMHBHCWQTj6NiD_pBpI-114" target="cUMHBHCWQTj6NiD_pBpI-119" edge="1">
          <mxGeometry relative="1" as="geometry">
            <mxPoint x="640" y="590" as="targetPoint" />
            <Array as="points">
              <mxPoint x="540" y="425" />
              <mxPoint x="660" y="425" />
              <mxPoint x="660" y="535" />
            </Array>
          </mxGeometry>
        </mxCell>
        <mxCell id="cUMHBHCWQTj6NiD_pBpI-112" style="edgeStyle=orthogonalEdgeStyle;rounded=0;orthogonalLoop=1;jettySize=auto;html=1;entryX=0.161;entryY=0.033;entryDx=0;entryDy=0;entryPerimeter=0;" parent="1" source="cUMHBHCWQTj6NiD_pBpI-114" target="cUMHBHCWQTj6NiD_pBpI-115" edge="1">
          <mxGeometry relative="1" as="geometry">
            <Array as="points">
              <mxPoint x="450" y="435" />
              <mxPoint x="309" y="435" />
            </Array>
          </mxGeometry>
        </mxCell>
        <mxCell id="cUMHBHCWQTj6NiD_pBpI-113" style="edgeStyle=orthogonalEdgeStyle;rounded=0;orthogonalLoop=1;jettySize=auto;html=1;entryX=0.789;entryY=0.071;entryDx=0;entryDy=0;entryPerimeter=0;" parent="1" source="cUMHBHCWQTj6NiD_pBpI-114" target="cUMHBHCWQTj6NiD_pBpI-105" edge="1">
          <mxGeometry relative="1" as="geometry" />
        </mxCell>
        <mxCell id="cUMHBHCWQTj6NiD_pBpI-114" value="aanmaken nota" style="shape=module;align=left;spacingLeft=20;align=center;verticalAlign=top;" parent="1" vertex="1">
          <mxGeometry x="400" y="320" width="180" height="60" as="geometry" />
        </mxCell>
        <mxCell id="cUMHBHCWQTj6NiD_pBpI-115" value="uitbetalen" style="shape=module;align=left;spacingLeft=20;align=center;verticalAlign=top;" parent="1" vertex="1">
          <mxGeometry x="280" y="520" width="180" height="60" as="geometry" />
        </mxCell>
        <mxCell id="cUMHBHCWQTj6NiD_pBpI-116" style="edgeStyle=orthogonalEdgeStyle;rounded=0;orthogonalLoop=1;jettySize=auto;html=1;entryX=0.294;entryY=-0.025;entryDx=0;entryDy=0;entryPerimeter=0;" parent="1" source="cUMHBHCWQTj6NiD_pBpI-117" target="cUMHBHCWQTj6NiD_pBpI-110" edge="1">
          <mxGeometry relative="1" as="geometry" />
        </mxCell>
        <mxCell id="cUMHBHCWQTj6NiD_pBpI-117" value="betalingsregeling api" style="shape=module;align=left;spacingLeft=20;align=center;verticalAlign=top;" parent="1" vertex="1">
          <mxGeometry x="960" y="180" width="180" height="80" as="geometry" />
        </mxCell>
        <mxCell id="cUMHBHCWQTj6NiD_pBpI-118" value="" style="group" parent="1" vertex="1" connectable="0">
          <mxGeometry x="700" y="570" width="310" height="190" as="geometry" />
        </mxCell>
        <mxCell id="cUMHBHCWQTj6NiD_pBpI-119" value="Debiteuren domain" style="shape=module;align=left;spacingLeft=20;align=center;verticalAlign=top;" parent="cUMHBHCWQTj6NiD_pBpI-118" vertex="1">
          <mxGeometry width="310" height="190" as="geometry" />
        </mxCell>
        <mxCell id="cUMHBHCWQTj6NiD_pBpI-120" value="debiteur" style="outlineConnect=0;fontColor=#232F3E;gradientColor=none;strokeColor=#232F3E;fillColor=#ffffff;dashed=0;verticalLabelPosition=bottom;verticalAlign=top;align=center;html=1;fontSize=12;fontStyle=0;aspect=fixed;shape=mxgraph.aws4.resourceIcon;resIcon=mxgraph.aws4.object;" parent="cUMHBHCWQTj6NiD_pBpI-118" vertex="1">
          <mxGeometry x="30" y="50" width="60" height="60" as="geometry" />
        </mxCell>
        <mxCell id="cUMHBHCWQTj6NiD_pBpI-121" value="nota" style="outlineConnect=0;fontColor=#232F3E;gradientColor=none;strokeColor=#232F3E;fillColor=#ffffff;dashed=0;verticalLabelPosition=bottom;verticalAlign=top;align=center;html=1;fontSize=12;fontStyle=0;aspect=fixed;shape=mxgraph.aws4.resourceIcon;resIcon=mxgraph.aws4.object;" parent="cUMHBHCWQTj6NiD_pBpI-118" vertex="1">
          <mxGeometry x="100" y="50" width="60" height="60" as="geometry" />
        </mxCell>
        <mxCell id="cUMHBHCWQTj6NiD_pBpI-122" value="betalingsregeling" style="outlineConnect=0;fontColor=#232F3E;gradientColor=none;strokeColor=#232F3E;fillColor=#ffffff;dashed=0;verticalLabelPosition=bottom;verticalAlign=top;align=center;html=1;fontSize=12;fontStyle=0;aspect=fixed;shape=mxgraph.aws4.resourceIcon;resIcon=mxgraph.aws4.object;" parent="cUMHBHCWQTj6NiD_pBpI-118" vertex="1">
          <mxGeometry x="190" y="60" width="60" height="60" as="geometry" />
        </mxCell>
        <mxCell id="cUMHBHCWQTj6NiD_pBpI-123" value="Eureka registry" style="outlineConnect=0;fontColor=#232F3E;gradientColor=none;strokeColor=#232F3E;fillColor=#ffffff;dashed=0;verticalLabelPosition=bottom;verticalAlign=top;align=center;html=1;fontSize=12;fontStyle=0;aspect=fixed;shape=mxgraph.aws4.resourceIcon;resIcon=mxgraph.aws4.registry;" parent="1" vertex="1">
          <mxGeometry x="1190" y="50" width="60" height="60" as="geometry" />
        </mxCell>
        <mxCell id="cUMHBHCWQTj6NiD_pBpI-125" value="" style="edgeStyle=orthogonalEdgeStyle;rounded=0;orthogonalLoop=1;jettySize=auto;html=1;" parent="1" source="cUMHBHCWQTj6NiD_pBpI-124" target="cUMHBHCWQTj6NiD_pBpI-98" edge="1">
          <mxGeometry relative="1" as="geometry" />
        </mxCell>
        <mxCell id="cUMHBHCWQTj6NiD_pBpI-126" style="edgeStyle=orthogonalEdgeStyle;rounded=0;orthogonalLoop=1;jettySize=auto;html=1;entryX=0.5;entryY=0;entryDx=0;entryDy=0;" parent="1" source="cUMHBHCWQTj6NiD_pBpI-124" target="cUMHBHCWQTj6NiD_pBpI-103" edge="1">
          <mxGeometry relative="1" as="geometry" />
        </mxCell>
        <mxCell id="cUMHBHCWQTj6NiD_pBpI-127" style="edgeStyle=orthogonalEdgeStyle;rounded=0;orthogonalLoop=1;jettySize=auto;html=1;" parent="1" source="cUMHBHCWQTj6NiD_pBpI-124" target="cUMHBHCWQTj6NiD_pBpI-117" edge="1">
          <mxGeometry relative="1" as="geometry" />
        </mxCell>
        <mxCell id="cUMHBHCWQTj6NiD_pBpI-124" value="API GATEWAY" style="outlineConnect=0;fontColor=#232F3E;gradientColor=none;strokeColor=#232F3E;fillColor=#ffffff;dashed=0;verticalLabelPosition=bottom;verticalAlign=top;align=center;html=1;fontSize=12;fontStyle=0;aspect=fixed;shape=mxgraph.aws4.resourceIcon;resIcon=mxgraph.aws4.registry;" parent="1" vertex="1">
          <mxGeometry x="740" y="50" width="60" height="60" as="geometry" />
        </mxCell>
        <mxCell id="cUMHBHCWQTj6NiD_pBpI-128" value="" style="endArrow=classic;html=1;" parent="1" target="cUMHBHCWQTj6NiD_pBpI-124" edge="1">
          <mxGeometry width="50" height="50" relative="1" as="geometry">
            <mxPoint x="770" as="sourcePoint" />
            <mxPoint x="780" y="10" as="targetPoint" />
          </mxGeometry>
        </mxCell>
        <mxCell id="2" value="API Gateway voor authenticatie, https, ...&lt;br&gt;ZUUL, Spring Cloud Gateway API, gravitee, Consul.." style="text;html=1;align=left;verticalAlign=middle;resizable=0;points=[];autosize=1;" vertex="1" parent="1">
          <mxGeometry x="780" y="25" width="300" height="30" as="geometry" />
        </mxCell>
        <mxCell id="LUO_Wmgh21wgtPnX21D9-2" value="EVENT BUS / MQ" style="rounded=0;whiteSpace=wrap;html=1;" vertex="1" parent="1">
          <mxGeometry x="170" y="100" width="70" height="690" as="geometry" />
        </mxCell>
        <mxCell id="LUO_Wmgh21wgtPnX21D9-3" value="Alle services regstreren bij de Registry. &lt;br&gt;Clients krijgen via Ribbon een instantie die ze aanroepen" style="text;html=1;align=left;verticalAlign=middle;resizable=0;points=[];autosize=1;" vertex="1" parent="1">
          <mxGeometry x="1260" y="20" width="320" height="30" as="geometry" />
        </mxCell>
      </root>
    </mxGraphModel>
  </diagram>
</mxfile>
